<?xml version="1.0" encoding="UTF-8"?>
<svg width="54px" height="27px" viewBox="0 0 54 27" version="1.1" xmlns="http://www.w3.org/2000/svg" xmlns:xlink="http://www.w3.org/1999/xlink">
    <!-- Generator: Sketch 46.1 (44463) - http://www.bohemiancoding.com/sketch -->
    <title>site/sprites/footer/fb</title>
    <desc>Created with Sketch.</desc>
    <defs></defs>
    <g id="Site" stroke="none" stroke-width="1" fill="none" fill-rule="evenodd">
        <g id="site/sprites/footer/fb">
            <g id="normal">
                <circle id="Oval" stroke="#575E63" opacity="0.800000012" cx="13.5" cy="13.5" r="13"></circle>
                <path d="M14.3269638,11.5154967 L14.3269638,10.5910513 C14.3269638,10.4522739 14.3333485,10.3447818 14.3463233,10.2688487 C14.3592524,10.1928016 14.388668,10.1180087 14.434319,10.0441734 C14.4799017,9.97038382 14.5537141,9.91944252 14.6556423,9.89121274 C14.7577073,9.86293736 14.893338,9.84884527 15.062671,9.84884527 L15.9870709,9.84884527 L15.9870709,8 L14.5092488,8 C13.6541464,8 13.0400005,8.20287588 12.6667199,8.60862764 C12.2934848,9.01447061 12.1068901,9.61226696 12.1068901,10.4022447 L12.1068901,11.5154739 L11,11.5154739 L11,13.364456 L12.1068217,13.364456 L12.1068217,18.7289348 L14.326941,18.7289348 L14.326941,13.3644788 L15.8046718,13.3644788 L16,11.5154967 L14.3269638,11.5154967 Z" id="facebook" fill="#575E63" fill-rule="nonzero"></path>
            </g>
            <g id="hover" transform="translate(27.000000, 0.000000)">
                <circle id="Oval" fill="#456899" cx="13.5" cy="13.5" r="13.5"></circle>
                <path d="M14.3269638,11.5154967 L14.3269638,10.5910513 C14.3269638,10.4522739 14.3333485,10.3447818 14.3463233,10.2688487 C14.3592524,10.1928016 14.388668,10.1180087 14.434319,10.0441734 C14.4799017,9.97038382 14.5537141,9.91944252 14.6556423,9.89121274 C14.7577073,9.86293736 14.893338,9.84884527 15.062671,9.84884527 L15.9870709,9.84884527 L15.9870709,8 L14.5092488,8 C13.6541464,8 13.0400005,8.20287588 12.6667199,8.60862764 C12.2934848,9.01447061 12.1068901,9.61226696 12.1068901,10.4022447 L12.1068901,11.5154739 L11,11.5154739 L11,13.364456 L12.1068217,13.364456 L12.1068217,18.7289348 L14.326941,18.7289348 L14.326941,13.3644788 L15.8046718,13.3644788 L16,11.5154967 L14.3269638,11.5154967 Z" id="facebook" fill="#FFFFFF" fill-rule="nonzero"></path>
            </g>
        </g>
    </g>
</svg>