<?xml version="1.0" encoding="UTF-8"?>
<svg width="54px" height="27px" viewBox="0 0 54 27" version="1.1" xmlns="http://www.w3.org/2000/svg" xmlns:xlink="http://www.w3.org/1999/xlink">
    <!-- Generator: Sketch 46.1 (44463) - http://www.bohemiancoding.com/sketch -->
    <title>site/sprites/footer/instagram</title>
    <desc>Created with Sketch.</desc>
    <defs>
        <linearGradient x1="0%" y1="0%" x2="100%" y2="100%" id="linearGradient-1">
            <stop stop-color="#4E60D3" offset="0%"></stop>
            <stop stop-color="#913BAF" offset="23.4215561%"></stop>
            <stop stop-color="#D52D88" offset="76.145798%"></stop>
            <stop stop-color="#F26D4F" offset="100%"></stop>
        </linearGradient>
    </defs>
    <g id="Site" stroke="none" stroke-width="1" fill="none" fill-rule="evenodd">
        <g id="site/sprites/footer/instagram">
            <g id="normal">
                <circle id="Oval" stroke="#575E63" opacity="0.800000012" cx="13.5" cy="13.5" r="13"></circle>
                <g id="icon" transform="translate(7.000000, 7.000000)" fill-rule="nonzero" fill="#575E63">
                    <path d="M9.36045882,0 L3.56765882,0 C1.60045294,0 0,1.60052941 0,3.56773529 L0,9.36053529 C0,11.3278176 1.60045294,12.9282706 3.56765882,12.9282706 L9.36045882,12.9282706 C11.3278176,12.9282706 12.9282706,11.3277412 12.9282706,9.36053529 L12.9282706,3.56773529 C12.9283471,1.60052941 11.3278176,0 9.36045882,0 Z M11.7812882,9.36053529 C11.7812882,10.6953294 10.6953294,11.7812118 9.36053529,11.7812118 L3.56765882,11.7812118 C2.23294118,11.7812882 1.14705882,10.6953294 1.14705882,9.36053529 L1.14705882,3.56773529 C1.14705882,2.23301765 2.23294118,1.14705882 3.56765882,1.14705882 L9.36045882,1.14705882 C10.6952529,1.14705882 11.7812118,2.23301765 11.7812118,3.56773529 L11.7812118,9.36053529 L11.7812882,9.36053529 Z" id="Shape"></path>
                    <path d="M6.46413529,3.133 C4.62723529,3.133 3.13284706,4.62738824 3.13284706,6.46428824 C3.13284706,8.30111176 4.62723529,9.79542353 6.46413529,9.79542353 C8.30103529,9.79542353 9.79542353,8.30111176 9.79542353,6.46428824 C9.79542353,4.62738824 8.30103529,3.133 6.46413529,3.133 Z M6.46413529,8.64828824 C5.2598,8.64828824 4.27990588,7.66854706 4.27990588,6.46421176 C4.27990588,5.2598 5.25972353,4.27998235 6.46413529,4.27998235 C7.66854706,4.27998235 8.64836471,5.2598 8.64836471,6.46421176 C8.64836471,7.66854706 7.66847059,8.64828824 6.46413529,8.64828824 Z" id="Shape"></path>
                    <path d="M9.93513529,2.16037059 C9.71413529,2.16037059 9.49703529,2.24984118 9.34095882,2.40660588 C9.18411765,2.56260588 9.09395882,2.77978235 9.09395882,3.00154706 C9.09395882,3.22262353 9.18419412,3.43972353 9.34095882,3.59648824 C9.49695882,3.75248824 9.71413529,3.84272353 9.93513529,3.84272353 C10.1569,3.84272353 10.3733118,3.75248824 10.5300765,3.59648824 C10.6868412,3.43972353 10.7763118,3.22254706 10.7763118,3.00154706 C10.7763118,2.77978235 10.6868412,2.56260588 10.5300765,2.40660588 C10.3740765,2.24984118 10.1569,2.16037059 9.93513529,2.16037059 Z" id="Shape"></path>
                </g>
            </g>
            <g id="hover" transform="translate(27.000000, 0.000000)">
                <circle id="Oval" fill="url(#linearGradient-1)" cx="13.5" cy="13.5" r="13.5"></circle>
                <g id="icon" transform="translate(7.000000, 7.000000)" fill-rule="nonzero" fill="#FFFFFF">
                    <path d="M9.36045882,0 L3.56765882,0 C1.60045294,0 0,1.60052941 0,3.56773529 L0,9.36053529 C0,11.3278176 1.60045294,12.9282706 3.56765882,12.9282706 L9.36045882,12.9282706 C11.3278176,12.9282706 12.9282706,11.3277412 12.9282706,9.36053529 L12.9282706,3.56773529 C12.9283471,1.60052941 11.3278176,0 9.36045882,0 Z M11.7812882,9.36053529 C11.7812882,10.6953294 10.6953294,11.7812118 9.36053529,11.7812118 L3.56765882,11.7812118 C2.23294118,11.7812882 1.14705882,10.6953294 1.14705882,9.36053529 L1.14705882,3.56773529 C1.14705882,2.23301765 2.23294118,1.14705882 3.56765882,1.14705882 L9.36045882,1.14705882 C10.6952529,1.14705882 11.7812118,2.23301765 11.7812118,3.56773529 L11.7812118,9.36053529 L11.7812882,9.36053529 Z" id="Shape"></path>
                    <path d="M6.46413529,3.133 C4.62723529,3.133 3.13284706,4.62738824 3.13284706,6.46428824 C3.13284706,8.30111176 4.62723529,9.79542353 6.46413529,9.79542353 C8.30103529,9.79542353 9.79542353,8.30111176 9.79542353,6.46428824 C9.79542353,4.62738824 8.30103529,3.133 6.46413529,3.133 Z M6.46413529,8.64828824 C5.2598,8.64828824 4.27990588,7.66854706 4.27990588,6.46421176 C4.27990588,5.2598 5.25972353,4.27998235 6.46413529,4.27998235 C7.66854706,4.27998235 8.64836471,5.2598 8.64836471,6.46421176 C8.64836471,7.66854706 7.66847059,8.64828824 6.46413529,8.64828824 Z" id="Shape"></path>
                    <path d="M9.93513529,2.16037059 C9.71413529,2.16037059 9.49703529,2.24984118 9.34095882,2.40660588 C9.18411765,2.56260588 9.09395882,2.77978235 9.09395882,3.00154706 C9.09395882,3.22262353 9.18419412,3.43972353 9.34095882,3.59648824 C9.49695882,3.75248824 9.71413529,3.84272353 9.93513529,3.84272353 C10.1569,3.84272353 10.3733118,3.75248824 10.5300765,3.59648824 C10.6868412,3.43972353 10.7763118,3.22254706 10.7763118,3.00154706 C10.7763118,2.77978235 10.6868412,2.56260588 10.5300765,2.40660588 C10.3740765,2.24984118 10.1569,2.16037059 9.93513529,2.16037059 Z" id="Shape"></path>
                </g>
            </g>
        </g>
    </g>
</svg>