<?xml version="1.0" encoding="UTF-8"?>
<svg width="54px" height="27px" viewBox="0 0 54 27" version="1.1" xmlns="http://www.w3.org/2000/svg" xmlns:xlink="http://www.w3.org/1999/xlink">
    <!-- Generator: Sketch 46.1 (44463) - http://www.bohemiancoding.com/sketch -->
    <title>site/sprites/footer/ok</title>
    <desc>Created with Sketch.</desc>
    <defs></defs>
    <g id="Site" stroke="none" stroke-width="1" fill="none" fill-rule="evenodd">
        <g id="site/sprites/footer/ok">
            <g id="normal">
                <circle id="Oval" stroke="#575E63" opacity="0.800000012" cx="13.5" cy="13.5" r="13"></circle>
                <g id="odnoklassniki" transform="translate(9.000000, 6.000000)" fill-rule="nonzero" fill="#575E63">
                    <path d="M3.50597917,9.807875 C2.42652083,9.69529167 1.45322917,9.4294375 0.6199375,8.77770833 C0.516541667,8.696625 0.409791667,8.61845833 0.3154375,8.52789583 C-0.0492916667,8.17760417 -0.0860416667,7.77641667 0.2025625,7.36297917 C0.449458333,7.0091875 0.863916667,6.91454167 1.29470833,7.1176875 C1.378125,7.1570625 1.45760417,7.20620833 1.53372917,7.259 C3.08670833,8.3260625 5.22010417,8.35552083 6.77891667,7.30697917 C6.93335417,7.1885625 7.0984375,7.09202083 7.28977083,7.04272917 C7.66179167,6.94720833 8.00872917,7.08385417 8.208375,7.40935417 C8.43645833,7.78108333 8.43354167,8.14391667 8.15252083,8.43252083 C7.7214375,8.87497917 7.203,9.19508333 6.62695833,9.4185 C6.08227083,9.62966667 5.48566667,9.73597917 4.8951875,9.8065625 C4.98429167,9.90354167 5.02629167,9.95122917 5.082,10.0072292 C5.88379167,10.8128125 6.68908333,11.6150417 7.48825,12.4231042 C7.76052083,12.6984375 7.81739583,13.0398333 7.66747917,13.3600833 C7.5035625,13.7100833 7.13664583,13.9403542 6.776875,13.9157083 C6.5489375,13.8999583 6.37116667,13.7865 6.21322917,13.6273958 C5.60816667,13.0185417 4.99172917,12.4209167 4.39891667,11.8005417 C4.22639583,11.6201458 4.14341667,11.6542708 3.99116667,11.8108958 C3.38245833,12.4375417 2.76383333,13.0545625 2.1415625,13.6680833 C1.86214583,13.9435625 1.52964583,13.9931458 1.20560417,13.8357917 C0.861145833,13.6688125 0.641958333,13.3172083 0.658875,12.9638542 C0.670541667,12.7248333 0.788083333,12.54225 0.952145833,12.3784792 C1.745625,11.5861667 2.53691667,10.7918125 3.3285,9.9981875 C3.38085417,9.94539583 3.42970833,9.88939583 3.50597917,9.807875 Z" id="Shape"></path>
                    <path d="M4.16354167,7.04797917 C2.2378125,7.04141667 0.658729167,5.44497917 0.669958333,3.5161875 C0.681041667,1.56610417 2.26114583,-0.00539583333 4.20583333,-1.69406589e-21 C6.15445833,0.00525 7.71852083,1.59935417 7.70875,3.56970833 C7.69883333,5.4945625 6.1088125,7.0546875 4.16354167,7.04797917 Z M5.9136875,3.52085417 C5.91033333,2.56316667 5.147625,1.80075 4.19183333,1.799875 C3.22802083,1.79885417 2.45845833,2.575125 2.46589583,3.5415625 C2.47304167,4.49560417 3.2423125,5.252625 4.20072917,5.249125 C5.15622917,5.24577083 5.91689583,4.47839583 5.9136875,3.52085417 Z" id="Shape"></path>
                </g>
            </g>
            <g id="hover" transform="translate(27.000000, 0.000000)">
                <circle id="Oval" fill="#FD9D30" cx="13.5" cy="13.5" r="13.5"></circle>
                <g id="odnoklassniki" transform="translate(9.000000, 6.000000)" fill-rule="nonzero" fill="#FFFFFF">
                    <path d="M3.50597917,9.807875 C2.42652083,9.69529167 1.45322917,9.4294375 0.6199375,8.77770833 C0.516541667,8.696625 0.409791667,8.61845833 0.3154375,8.52789583 C-0.0492916667,8.17760417 -0.0860416667,7.77641667 0.2025625,7.36297917 C0.449458333,7.0091875 0.863916667,6.91454167 1.29470833,7.1176875 C1.378125,7.1570625 1.45760417,7.20620833 1.53372917,7.259 C3.08670833,8.3260625 5.22010417,8.35552083 6.77891667,7.30697917 C6.93335417,7.1885625 7.0984375,7.09202083 7.28977083,7.04272917 C7.66179167,6.94720833 8.00872917,7.08385417 8.208375,7.40935417 C8.43645833,7.78108333 8.43354167,8.14391667 8.15252083,8.43252083 C7.7214375,8.87497917 7.203,9.19508333 6.62695833,9.4185 C6.08227083,9.62966667 5.48566667,9.73597917 4.8951875,9.8065625 C4.98429167,9.90354167 5.02629167,9.95122917 5.082,10.0072292 C5.88379167,10.8128125 6.68908333,11.6150417 7.48825,12.4231042 C7.76052083,12.6984375 7.81739583,13.0398333 7.66747917,13.3600833 C7.5035625,13.7100833 7.13664583,13.9403542 6.776875,13.9157083 C6.5489375,13.8999583 6.37116667,13.7865 6.21322917,13.6273958 C5.60816667,13.0185417 4.99172917,12.4209167 4.39891667,11.8005417 C4.22639583,11.6201458 4.14341667,11.6542708 3.99116667,11.8108958 C3.38245833,12.4375417 2.76383333,13.0545625 2.1415625,13.6680833 C1.86214583,13.9435625 1.52964583,13.9931458 1.20560417,13.8357917 C0.861145833,13.6688125 0.641958333,13.3172083 0.658875,12.9638542 C0.670541667,12.7248333 0.788083333,12.54225 0.952145833,12.3784792 C1.745625,11.5861667 2.53691667,10.7918125 3.3285,9.9981875 C3.38085417,9.94539583 3.42970833,9.88939583 3.50597917,9.807875 Z" id="Shape"></path>
                    <path d="M4.16354167,7.04797917 C2.2378125,7.04141667 0.658729167,5.44497917 0.669958333,3.5161875 C0.681041667,1.56610417 2.26114583,-0.00539583333 4.20583333,-3.38813179e-21 C6.15445833,0.00525 7.71852083,1.59935417 7.70875,3.56970833 C7.69883333,5.4945625 6.1088125,7.0546875 4.16354167,7.04797917 Z M5.9136875,3.52085417 C5.91033333,2.56316667 5.147625,1.80075 4.19183333,1.799875 C3.22802083,1.79885417 2.45845833,2.575125 2.46589583,3.5415625 C2.47304167,4.49560417 3.2423125,5.252625 4.20072917,5.249125 C5.15622917,5.24577083 5.91689583,4.47839583 5.9136875,3.52085417 Z" id="Shape"></path>
                </g>
            </g>
        </g>
    </g>
</svg>