<?xml version="1.0" encoding="UTF-8"?>
<svg width="54px" height="27px" viewBox="0 0 54 27" version="1.1" xmlns="http://www.w3.org/2000/svg" xmlns:xlink="http://www.w3.org/1999/xlink">
    <!-- Generator: Sketch 46.1 (44463) - http://www.bohemiancoding.com/sketch -->
    <title>site/sprites/footer/twitter</title>
    <desc>Created with Sketch.</desc>
    <defs></defs>
    <g id="Site" stroke="none" stroke-width="1" fill="none" fill-rule="evenodd">
        <g id="site/sprites/footer/twitter">
            <g id="normal">
                <circle id="Oval" stroke="#575E63" opacity="0.800000012" cx="13.5" cy="13.5" r="13"></circle>
                <path d="M20,9.25061279 C19.5216416,9.46272566 19.0076855,9.60610624 18.4681866,9.67057291 C19.0188066,9.34049543 19.441712,8.81783043 19.6408757,8.19499962 C19.1254724,8.50067676 18.5547431,8.72261578 17.9471974,8.84220539 C17.4607139,8.32385679 16.7675258,8 16.0004004,8 C14.5274677,8 13.3333236,9.19409337 13.3333236,10.6670007 C13.3333236,10.8760413 13.3569114,11.0795975 13.4023859,11.2748256 C11.1857887,11.1635641 9.22053277,10.1017811 7.90509784,8.48813381 C7.67551626,8.8820432 7.54396769,9.34019074 7.54396769,9.82898471 C7.54396769,10.7543188 8.01481052,11.5706766 8.73046928,12.0489589 C8.29326896,12.0350956 7.88201781,11.9151252 7.52246187,11.7153521 C7.52220796,11.7264732 7.52220796,11.737645 7.52220796,11.7488931 C7.52220796,13.041121 8.44157531,14.1190525 9.66164324,14.3641223 C9.4378761,14.4250343 9.20222617,14.4577374 8.95898446,14.4577374 C8.78711565,14.4577374 8.62004566,14.4409796 8.45716512,14.4098 C8.79658633,15.4693487 9.78153754,16.240562 10.9486407,16.2620171 C10.0358495,16.9774219 8.88583421,17.4037551 7.63623704,17.4037551 C7.42095035,17.4037551 7.20865975,17.3911613 7,17.3664055 C8.18030629,18.1232224 9.58224691,18.5647645 11.0884158,18.5647645 C15.9941543,18.5647645 18.6768463,14.5006982 18.6768463,10.9762325 C18.6768463,10.8606038 18.6742057,10.7455845 18.6691022,10.6311745 C19.1902692,10.2551655 19.6424499,9.78543987 20,9.25061279 Z" id="twitter" fill="#575E63" fill-rule="nonzero"></path>
            </g>
            <g id="hover" transform="translate(27.000000, 0.000000)">
                <circle id="Oval" fill="#2CAAE0" cx="13.5" cy="13.5" r="13.5"></circle>
                <path d="M20,9.25061279 C19.5216416,9.46272566 19.0076855,9.60610624 18.4681866,9.67057291 C19.0188066,9.34049543 19.441712,8.81783043 19.6408757,8.19499962 C19.1254724,8.50067676 18.5547431,8.72261578 17.9471974,8.84220539 C17.4607139,8.32385679 16.7675258,8 16.0004004,8 C14.5274677,8 13.3333236,9.19409337 13.3333236,10.6670007 C13.3333236,10.8760413 13.3569114,11.0795975 13.4023859,11.2748256 C11.1857887,11.1635641 9.22053277,10.1017811 7.90509784,8.48813381 C7.67551626,8.8820432 7.54396769,9.34019074 7.54396769,9.82898471 C7.54396769,10.7543188 8.01481052,11.5706766 8.73046928,12.0489589 C8.29326896,12.0350956 7.88201781,11.9151252 7.52246187,11.7153521 C7.52220796,11.7264732 7.52220796,11.737645 7.52220796,11.7488931 C7.52220796,13.041121 8.44157531,14.1190525 9.66164324,14.3641223 C9.4378761,14.4250343 9.20222617,14.4577374 8.95898446,14.4577374 C8.78711565,14.4577374 8.62004566,14.4409796 8.45716512,14.4098 C8.79658633,15.4693487 9.78153754,16.240562 10.9486407,16.2620171 C10.0358495,16.9774219 8.88583421,17.4037551 7.63623704,17.4037551 C7.42095035,17.4037551 7.20865975,17.3911613 7,17.3664055 C8.18030629,18.1232224 9.58224691,18.5647645 11.0884158,18.5647645 C15.9941543,18.5647645 18.6768463,14.5006982 18.6768463,10.9762325 C18.6768463,10.8606038 18.6742057,10.7455845 18.6691022,10.6311745 C19.1902692,10.2551655 19.6424499,9.78543987 20,9.25061279 Z" id="twitter" fill="#FFFFFF" fill-rule="nonzero"></path>
            </g>
        </g>
    </g>
</svg>