<?xml version="1.0" encoding="UTF-8"?>
<svg width="54px" height="27px" viewBox="0 0 54 27" version="1.1" xmlns="http://www.w3.org/2000/svg" xmlns:xlink="http://www.w3.org/1999/xlink">
    <!-- Generator: Sketch 46.1 (44463) - http://www.bohemiancoding.com/sketch -->
    <title>site/sprites/footer/vk</title>
    <desc>Created with Sketch.</desc>
    <defs>
        <circle id="path-1" cx="13.5" cy="13.5" r="13.5"></circle>
    </defs>
    <g id="Site" stroke="none" stroke-width="1" fill="none" fill-rule="evenodd">
        <g id="site/sprites/footer/vk">
            <g id="normal">
                <circle id="Oval" stroke="#575E63" opacity="0.800000012" cx="13.5" cy="13.5" r="13"></circle>
                <path d="M18.0489593,14.9850591 C18.5133643,15.4337398 19.0034997,15.8558493 19.420026,16.3497715 C19.6040216,16.5692685 19.7782008,16.7957464 19.9114739,17.0504733 C20.1003094,17.4125675 19.9292747,17.811028 19.6011779,17.8326476 L17.5616129,17.8317276 C17.0355752,17.8749127 16.6159318,17.6653732 16.263089,17.3094483 C15.9807108,17.024822 15.7191959,16.7219043 15.4476732,16.4276724 C15.336357,16.3074253 15.2198456,16.1942675 15.0806663,16.1048127 C14.802253,15.9259844 14.5605622,15.9807234 14.4014493,16.2680825 C14.2394107,16.5603663 14.2026335,16.8839836 14.1867194,17.2097114 C14.1648718,17.6849634 14.0197043,17.8099186 13.5372797,17.8316735 C12.5062864,17.8797832 11.5278202,17.7254426 10.6188343,17.2107667 C9.81744577,16.7570531 9.19603334,16.1165019 8.6551207,15.3913665 C7.60203363,13.9793832 6.79553184,12.4278061 6.07070562,10.8327733 C5.90754589,10.473412 6.0268737,10.2805134 6.42756796,10.2736677 C7.09292168,10.2608691 7.75819337,10.2617891 8.42434006,10.2727477 C8.69476903,10.2766711 8.8737881,10.4301458 8.9782136,10.6829515 C9.33819312,11.5588558 9.77867243,12.3921973 10.3315616,13.1646307 C10.4788073,13.3702738 10.6289514,13.5759439 10.8427243,13.7206788 C11.0792471,13.8809451 11.2593326,13.8278296 11.370594,13.5670958 C11.4411954,13.4017696 11.4721211,13.2236989 11.4880351,13.0466565 C11.5407537,12.4374929 11.547699,11.8293576 11.4552501,11.2223317 C11.3984846,10.8434884 11.1828523,10.598232 10.8008338,10.5265545 C10.6059007,10.4899988 10.6349124,10.4182131 10.7293027,10.3081129 C10.8932281,10.1182177 11.0474191,10 11.3547894,10 L13.6598068,10 C14.0226847,10.0708657 14.1032665,10.2321873 14.15295,10.5934968 L14.1549187,13.1271549 C14.1509539,13.2670193 14.2255201,13.6821207 14.4801171,13.7746871 C14.6838822,13.8406011 14.8181943,13.6792796 14.9404753,13.5514291 C15.4923527,12.9718132 15.8862384,12.2868053 16.2381242,11.577499 C16.3942839,11.2655979 16.5285688,10.9417101 16.6586973,10.6180657 C16.7551111,10.3779233 16.9064037,10.2597597 17.1797584,10.2649819 L19.3982057,10.2669301 C19.4639946,10.2669301 19.5305491,10.2678772 19.5942599,10.2786734 C19.9680753,10.3417193 20.0705321,10.5008492 19.9550597,10.8620775 C19.7731423,11.4288136 19.4191783,11.9011162 19.0730894,12.3755835 C18.7031294,12.882142 18.3074391,13.3713831 17.9405689,13.8809451 C17.6034761,14.3463479 17.6302455,14.5808892 18.0489593,14.9850591 L18.0489593,14.9850591 Z" id="vk" fill="#575E63" fill-rule="nonzero"></path>
            </g>
            <g id="hover" transform="translate(27.000000, 0.000000)">
                <g id="Oval" opacity="0.800000012">
                    <use fill="#5075A5" fill-rule="evenodd" xlink:href="#path-1"></use>
                    <circle stroke="#5075A5" stroke-width="1" cx="13.5" cy="13.5" r="13"></circle>
                </g>
                <path d="M18.0489593,14.9850591 C18.5133643,15.4337398 19.0034997,15.8558493 19.420026,16.3497715 C19.6040216,16.5692685 19.7782008,16.7957464 19.9114739,17.0504733 C20.1003094,17.4125675 19.9292747,17.811028 19.6011779,17.8326476 L17.5616129,17.8317276 C17.0355752,17.8749127 16.6159318,17.6653732 16.263089,17.3094483 C15.9807108,17.024822 15.7191959,16.7219043 15.4476732,16.4276724 C15.336357,16.3074253 15.2198456,16.1942675 15.0806663,16.1048127 C14.802253,15.9259844 14.5605622,15.9807234 14.4014493,16.2680825 C14.2394107,16.5603663 14.2026335,16.8839836 14.1867194,17.2097114 C14.1648718,17.6849634 14.0197043,17.8099186 13.5372797,17.8316735 C12.5062864,17.8797832 11.5278202,17.7254426 10.6188343,17.2107667 C9.81744577,16.7570531 9.19603334,16.1165019 8.6551207,15.3913665 C7.60203363,13.9793832 6.79553184,12.4278061 6.07070562,10.8327733 C5.90754589,10.473412 6.0268737,10.2805134 6.42756796,10.2736677 C7.09292168,10.2608691 7.75819337,10.2617891 8.42434006,10.2727477 C8.69476903,10.2766711 8.8737881,10.4301458 8.9782136,10.6829515 C9.33819312,11.5588558 9.77867243,12.3921973 10.3315616,13.1646307 C10.4788073,13.3702738 10.6289514,13.5759439 10.8427243,13.7206788 C11.0792471,13.8809451 11.2593326,13.8278296 11.370594,13.5670958 C11.4411954,13.4017696 11.4721211,13.2236989 11.4880351,13.0466565 C11.5407537,12.4374929 11.547699,11.8293576 11.4552501,11.2223317 C11.3984846,10.8434884 11.1828523,10.598232 10.8008338,10.5265545 C10.6059007,10.4899988 10.6349124,10.4182131 10.7293027,10.3081129 C10.8932281,10.1182177 11.0474191,10 11.3547894,10 L13.6598068,10 C14.0226847,10.0708657 14.1032665,10.2321873 14.15295,10.5934968 L14.1549187,13.1271549 C14.1509539,13.2670193 14.2255201,13.6821207 14.4801171,13.7746871 C14.6838822,13.8406011 14.8181943,13.6792796 14.9404753,13.5514291 C15.4923527,12.9718132 15.8862384,12.2868053 16.2381242,11.577499 C16.3942839,11.2655979 16.5285688,10.9417101 16.6586973,10.6180657 C16.7551111,10.3779233 16.9064037,10.2597597 17.1797584,10.2649819 L19.3982057,10.2669301 C19.4639946,10.2669301 19.5305491,10.2678772 19.5942599,10.2786734 C19.9680753,10.3417193 20.0705321,10.5008492 19.9550597,10.8620775 C19.7731423,11.4288136 19.4191783,11.9011162 19.0730894,12.3755835 C18.7031294,12.882142 18.3074391,13.3713831 17.9405689,13.8809451 C17.6034761,14.3463479 17.6302455,14.5808892 18.0489593,14.9850591 L18.0489593,14.9850591 Z" id="vk" fill="#FFFFFF" fill-rule="nonzero"></path>
            </g>
        </g>
    </g>
</svg>