<?xml version="1.0" encoding="UTF-8"?>
<svg width="54px" height="27px" viewBox="0 0 54 27" version="1.1" xmlns="http://www.w3.org/2000/svg" xmlns:xlink="http://www.w3.org/1999/xlink">
    <!-- Generator: Sketch 46.1 (44463) - http://www.bohemiancoding.com/sketch -->
    <title>site/sprites/footer/yt</title>
    <desc>Created with Sketch.</desc>
    <defs></defs>
    <g id="Site" stroke="none" stroke-width="1" fill="none" fill-rule="evenodd">
        <g id="site/sprites/footer/yt">
            <g id="normal">
                <circle id="Oval" stroke="#575E63" opacity="0.800000012" cx="13.5" cy="13.5" r="13"></circle>
                <path d="M19.8889929,11.1606388 C19.8166671,10.2974081 19.3006974,9.20883149 18.2403286,9.16991368 C15.2794207,8.97132063 11.7716596,8.91702442 8.75711465,9.16991368 C7.82186507,9.2744766 7.18077606,10.4108716 7.11090462,11.2741023 C6.96303179,13.0872999 6.96303179,14.1191575 7.11090462,15.9323551 C7.18159416,16.7955858 7.80644887,17.9384841 8.75875086,18.0584254 C11.8090369,18.2570185 15.2997456,18.285378 18.2419648,18.0584254 C19.1650194,17.8987502 19.8191215,16.7955858 19.889811,15.9323551 C20.0368657,14.1183414 20.0368657,12.9738364 19.8889929,11.1606388 Z M11.8740252,15.9031795 L11.8740252,11.2546434 L15.9367441,13.5793067 L11.8740252,15.9031795 Z" id="you-tube" fill="#575E63" fill-rule="nonzero"></path>
            </g>
            <g id="hover" transform="translate(27.000000, 0.000000)">
                <circle id="Oval" fill="#CE1A17" cx="13.5" cy="13.5" r="13.5"></circle>
                <path d="M19.8889929,11.1606388 C19.8166671,10.2974081 19.3006974,9.20883149 18.2403286,9.16991368 C15.2794207,8.97132063 11.7716596,8.91702442 8.75711465,9.16991368 C7.82186507,9.2744766 7.18077606,10.4108716 7.11090462,11.2741023 C6.96303179,13.0872999 6.96303179,14.1191575 7.11090462,15.9323551 C7.18159416,16.7955858 7.80644887,17.9384841 8.75875086,18.0584254 C11.8090369,18.2570185 15.2997456,18.285378 18.2419648,18.0584254 C19.1650194,17.8987502 19.8191215,16.7955858 19.889811,15.9323551 C20.0368657,14.1183414 20.0368657,12.9738364 19.8889929,11.1606388 Z M11.8740252,15.9031795 L11.8740252,11.2546434 L15.9367441,13.5793067 L11.8740252,15.9031795 Z" id="you-tube" fill="#FFFFFF" fill-rule="nonzero"></path>
            </g>
        </g>
    </g>
</svg>