<?xml version="1.0" encoding="UTF-8"?>
<svg width="110px" height="55px" viewBox="0 0 110 55" version="1.1" xmlns="http://www.w3.org/2000/svg" xmlns:xlink="http://www.w3.org/1999/xlink">
    <!-- Generator: Sketch 46.1 (44463) - http://www.bohemiancoding.com/sketch -->
    <title>site/sprites/social/fb</title>
    <desc>Created with Sketch.</desc>
    <defs>
        <circle id="path-1" cx="27.5" cy="27.5" r="27.5"></circle>
    </defs>
    <g id="Site" stroke="none" stroke-width="1" fill="none" fill-rule="evenodd">
        <g id="site/sprites/social/fb">
            <g id="icon" stroke="#E1E1E1">
                <circle id="oval" cx="27.5" cy="27.5" r="27"></circle>
            </g>
            <path d="M29.195414,24.5464968 L29.195414,22.8250106 C29.195414,22.5665817 29.2073036,22.3664119 29.231465,22.2250106 C29.2555414,22.083397 29.3103185,21.9441189 29.3953291,21.8066242 C29.4802123,21.6692144 29.6176645,21.5743524 29.8074735,21.5217834 C29.9975372,21.4691295 30.2501062,21.4428875 30.5654352,21.4428875 L32.2868365,21.4428875 L32.2868365,18 L29.534862,18 C27.9425053,18 26.7988535,18.3777919 26.1037367,19.1333758 C25.4087049,19.8891295 25.0612314,21.0023355 25.0612314,22.4734183 L25.0612314,24.5464544 L23,24.5464544 L23,27.9895966 L25.061104,27.9895966 L25.061104,37.9792357 L29.1953715,37.9792357 L29.1953715,27.9896391 L31.9471762,27.9896391 L32.310913,24.5464968 L29.195414,24.5464968 Z" id="facebook" fill="#456899" fill-rule="nonzero"></path>
            <g id="icon" transform="translate(55.000000, 0.000000)">
                <g id="oval">
                    <use fill="#456899" fill-rule="evenodd" xlink:href="#path-1"></use>
                    <circle stroke="#456899" stroke-width="1" cx="27.5" cy="27.5" r="27"></circle>
                </g>
                <path d="M29.195414,24.5464968 L29.195414,22.8250106 C29.195414,22.5665817 29.2073036,22.3664119 29.231465,22.2250106 C29.2555414,22.083397 29.3103185,21.9441189 29.3953291,21.8066242 C29.4802123,21.6692144 29.6176645,21.5743524 29.8074735,21.5217834 C29.9975372,21.4691295 30.2501062,21.4428875 30.5654352,21.4428875 L32.2868365,21.4428875 L32.2868365,18 L29.534862,18 C27.9425053,18 26.7988535,18.3777919 26.1037367,19.1333758 C25.4087049,19.8891295 25.0612314,21.0023355 25.0612314,22.4734183 L25.0612314,24.5464544 L23,24.5464544 L23,27.9895966 L25.061104,27.9895966 L25.061104,37.9792357 L29.1953715,37.9792357 L29.1953715,27.9896391 L31.9471762,27.9896391 L32.310913,24.5464968 L29.195414,24.5464968 Z" id="facebook" fill="#FFFFFF" fill-rule="nonzero"></path>
            </g>
        </g>
    </g>
</svg>