<?xml version="1.0" encoding="UTF-8"?>
<svg width="110px" height="55px" viewBox="0 0 110 55" version="1.1" xmlns="http://www.w3.org/2000/svg" xmlns:xlink="http://www.w3.org/1999/xlink">
    <!-- Generator: Sketch 46.1 (44463) - http://www.bohemiancoding.com/sketch -->
    <title>site/sprites/social/ok</title>
    <desc>Created with Sketch.</desc>
    <defs>
        <circle id="path-1" cx="27.5" cy="27.5" r="27.5"></circle>
    </defs>
    <g id="Site" stroke="none" stroke-width="1" fill="none" fill-rule="evenodd">
        <g id="site/sprites/social/ok">
            <g id="icon">
                <circle id="oval" stroke="#E1E1E1" cx="27.5" cy="27.5" r="27"></circle>
                <g id="odnoklassniki" transform="translate(22.000000, 18.000000)" fill-rule="nonzero" fill="#FD9D30">
                    <path d="M5.00854167,14.01125 C3.46645833,13.8504167 2.07604167,13.470625 0.885625,12.5395833 C0.737916667,12.42375 0.585416667,12.3120833 0.450625,12.1827083 C-0.0704166667,11.6822917 -0.122916667,11.1091667 0.289375,10.5185417 C0.642083333,10.013125 1.23416667,9.87791667 1.84958333,10.168125 C1.96875,10.224375 2.08229167,10.2945833 2.19104167,10.37 C4.40958333,11.894375 7.45729167,11.9364583 9.68416667,10.4385417 C9.90479167,10.269375 10.140625,10.1314583 10.4139583,10.0610417 C10.9454167,9.92458333 11.4410417,10.1197917 11.72625,10.5847917 C12.0520833,11.1158333 12.0479167,11.6341667 11.6464583,12.0464583 C11.030625,12.6785417 10.29,13.1358333 9.46708333,13.455 C8.68895833,13.7566667 7.83666667,13.9085417 6.993125,14.009375 C7.12041667,14.1479167 7.18041667,14.2160417 7.26,14.2960417 C8.40541667,15.446875 9.55583333,16.5929167 10.6975,17.7472917 C11.0864583,18.140625 11.1677083,18.6283333 10.9535417,19.0858333 C10.719375,19.5858333 10.1952083,19.9147917 9.68125,19.8795833 C9.355625,19.8570833 9.10166667,19.695 8.87604167,19.4677083 C8.01166667,18.5979167 7.13104167,17.7441667 6.28416667,16.8579167 C6.03770833,16.6002083 5.91916667,16.6489583 5.70166667,16.8727083 C4.83208333,17.7679167 3.94833333,18.649375 3.059375,19.5258333 C2.66020833,19.919375 2.18520833,19.9902083 1.72229167,19.7654167 C1.23020833,19.526875 0.917083333,19.0245833 0.94125,18.5197917 C0.957916667,18.1783333 1.12583333,17.9175 1.36020833,17.6835417 C2.49375,16.5516667 3.62416667,15.416875 4.755,14.283125 C4.82979167,14.2077083 4.89958333,14.1277083 5.00854167,14.01125 Z" id="Shape"></path>
                    <path d="M5.94791667,10.0685417 C3.196875,10.0591667 0.941041667,7.77854167 0.957083333,5.023125 C0.972916667,2.23729167 3.23020833,-0.00770833333 6.00833333,6.77626358e-21 C8.79208333,0.0075 11.0264583,2.28479167 11.0125,5.09958333 C10.9983333,7.849375 8.726875,10.078125 5.94791667,10.0685417 Z M8.448125,5.02979167 C8.44333333,3.66166667 7.35375,2.5725 5.98833333,2.57125 C4.61145833,2.56979167 3.51208333,3.67875 3.52270833,5.059375 C3.53291667,6.42229167 4.631875,7.50375 6.00104167,7.49875 C7.36604167,7.49395833 8.45270833,6.39770833 8.448125,5.02979167 Z" id="Shape"></path>
                </g>
            </g>
            <g id="icon" transform="translate(55.000000, 0.000000)">
                <g id="oval">
                    <use fill="#FD9D30" fill-rule="evenodd" xlink:href="#path-1"></use>
                    <circle stroke="#FD9D30" stroke-width="1" cx="27.5" cy="27.5" r="27"></circle>
                </g>
                <g id="odnoklassniki" transform="translate(22.000000, 18.000000)" fill-rule="nonzero" fill="#FFFFFF">
                    <path d="M5.00854167,14.01125 C3.46645833,13.8504167 2.07604167,13.470625 0.885625,12.5395833 C0.737916667,12.42375 0.585416667,12.3120833 0.450625,12.1827083 C-0.0704166667,11.6822917 -0.122916667,11.1091667 0.289375,10.5185417 C0.642083333,10.013125 1.23416667,9.87791667 1.84958333,10.168125 C1.96875,10.224375 2.08229167,10.2945833 2.19104167,10.37 C4.40958333,11.894375 7.45729167,11.9364583 9.68416667,10.4385417 C9.90479167,10.269375 10.140625,10.1314583 10.4139583,10.0610417 C10.9454167,9.92458333 11.4410417,10.1197917 11.72625,10.5847917 C12.0520833,11.1158333 12.0479167,11.6341667 11.6464583,12.0464583 C11.030625,12.6785417 10.29,13.1358333 9.46708333,13.455 C8.68895833,13.7566667 7.83666667,13.9085417 6.993125,14.009375 C7.12041667,14.1479167 7.18041667,14.2160417 7.26,14.2960417 C8.40541667,15.446875 9.55583333,16.5929167 10.6975,17.7472917 C11.0864583,18.140625 11.1677083,18.6283333 10.9535417,19.0858333 C10.719375,19.5858333 10.1952083,19.9147917 9.68125,19.8795833 C9.355625,19.8570833 9.10166667,19.695 8.87604167,19.4677083 C8.01166667,18.5979167 7.13104167,17.7441667 6.28416667,16.8579167 C6.03770833,16.6002083 5.91916667,16.6489583 5.70166667,16.8727083 C4.83208333,17.7679167 3.94833333,18.649375 3.059375,19.5258333 C2.66020833,19.919375 2.18520833,19.9902083 1.72229167,19.7654167 C1.23020833,19.526875 0.917083333,19.0245833 0.94125,18.5197917 C0.957916667,18.1783333 1.12583333,17.9175 1.36020833,17.6835417 C2.49375,16.5516667 3.62416667,15.416875 4.755,14.283125 C4.82979167,14.2077083 4.89958333,14.1277083 5.00854167,14.01125 Z" id="Shape"></path>
                    <path d="M5.94791667,10.0685417 C3.196875,10.0591667 0.941041667,7.77854167 0.957083333,5.023125 C0.972916667,2.23729167 3.23020833,-0.00770833333 6.00833333,0 C8.79208333,0.0075 11.0264583,2.28479167 11.0125,5.09958333 C10.9983333,7.849375 8.726875,10.078125 5.94791667,10.0685417 Z M8.448125,5.02979167 C8.44333333,3.66166667 7.35375,2.5725 5.98833333,2.57125 C4.61145833,2.56979167 3.51208333,3.67875 3.52270833,5.059375 C3.53291667,6.42229167 4.631875,7.50375 6.00104167,7.49875 C7.36604167,7.49395833 8.45270833,6.39770833 8.448125,5.02979167 Z" id="Shape"></path>
                </g>
            </g>
        </g>
    </g>
</svg>