<?xml version="1.0" encoding="UTF-8"?>
<svg width="110px" height="55px" viewBox="0 0 110 55" version="1.1" xmlns="http://www.w3.org/2000/svg" xmlns:xlink="http://www.w3.org/1999/xlink">
    <!-- Generator: Sketch 46.1 (44463) - http://www.bohemiancoding.com/sketch -->
    <title>site/sprites/social/twitter</title>
    <desc>Created with Sketch.</desc>
    <defs>
        <circle id="path-1" cx="27.5" cy="27.5" r="27.5"></circle>
    </defs>
    <g id="Site" stroke="none" stroke-width="1" fill="none" fill-rule="evenodd">
        <g id="site/sprites/social/twitter">
            <g id="icon" stroke="#E1E1E1">
                <circle id="oval" cx="27.5" cy="27.5" r="27"></circle>
            </g>
            <path d="M37.9610526,20.9202729 C37.2265497,21.2459649 36.4373879,21.4661209 35.6090058,21.5651072 C36.4544639,21.0582846 37.1038207,20.2557505 37.4096296,19.2994152 C36.6182456,19.7687719 35.7419103,20.1095517 34.8090448,20.2931774 C34.0620663,19.497271 32.9976998,19 31.8198051,19 C29.5581676,19 27.7246004,20.8334893 27.7246004,23.0950877 C27.7246004,23.4160624 27.7608187,23.728616 27.8306433,24.0283821 C24.4271345,23.8575439 21.4095517,22.2272125 19.3897466,19.7495127 C19.037232,20.354347 18.8352437,21.0578168 18.8352437,21.8083431 C18.8352437,23.2291618 19.5582066,24.4826511 20.657076,25.217037 C19.98577,25.1957505 19.354308,25.01154 18.8022222,24.7047953 C18.8018324,24.7218713 18.8018324,24.7390253 18.8018324,24.7562963 C18.8018324,26.7404678 20.2134893,28.3955945 22.0868616,28.7718908 C21.7432749,28.8654191 21.3814425,28.9156335 21.0079532,28.9156335 C20.7440546,28.9156335 20.4875244,28.8899025 20.2374269,28.8420273 C20.7585965,30.4689279 22.2709552,31.6530994 24.0630019,31.6860429 C22.6614425,32.7845224 20.8956335,33.4391423 18.9769201,33.4391423 C18.6463548,33.4391423 18.3203899,33.4198051 18,33.3817934 C19.8123197,34.5438596 21.9649513,35.2218324 24.2776218,35.2218324 C31.8102144,35.2218324 35.9293957,28.9815984 35.9293957,23.5699025 C35.9293957,23.3923587 35.9253411,23.2157505 35.9175049,23.040078 C36.7177388,22.462729 37.4120468,21.7414815 37.9610526,20.9202729 Z" id="twitter" fill="#2CAAE0" fill-rule="nonzero"></path>
            <g id="icon" transform="translate(55.000000, 0.000000)">
                <g id="oval">
                    <use fill="#2CAAE0" fill-rule="evenodd" xlink:href="#path-1"></use>
                    <circle stroke="#2CAAE0" stroke-width="1" cx="27.5" cy="27.5" r="27"></circle>
                </g>
                <path d="M37.9610526,20.9202729 C37.2265497,21.2459649 36.4373879,21.4661209 35.6090058,21.5651072 C36.4544639,21.0582846 37.1038207,20.2557505 37.4096296,19.2994152 C36.6182456,19.7687719 35.7419103,20.1095517 34.8090448,20.2931774 C34.0620663,19.497271 32.9976998,19 31.8198051,19 C29.5581676,19 27.7246004,20.8334893 27.7246004,23.0950877 C27.7246004,23.4160624 27.7608187,23.728616 27.8306433,24.0283821 C24.4271345,23.8575439 21.4095517,22.2272125 19.3897466,19.7495127 C19.037232,20.354347 18.8352437,21.0578168 18.8352437,21.8083431 C18.8352437,23.2291618 19.5582066,24.4826511 20.657076,25.217037 C19.98577,25.1957505 19.354308,25.01154 18.8022222,24.7047953 C18.8018324,24.7218713 18.8018324,24.7390253 18.8018324,24.7562963 C18.8018324,26.7404678 20.2134893,28.3955945 22.0868616,28.7718908 C21.7432749,28.8654191 21.3814425,28.9156335 21.0079532,28.9156335 C20.7440546,28.9156335 20.4875244,28.8899025 20.2374269,28.8420273 C20.7585965,30.4689279 22.2709552,31.6530994 24.0630019,31.6860429 C22.6614425,32.7845224 20.8956335,33.4391423 18.9769201,33.4391423 C18.6463548,33.4391423 18.3203899,33.4198051 18,33.3817934 C19.8123197,34.5438596 21.9649513,35.2218324 24.2776218,35.2218324 C31.8102144,35.2218324 35.9293957,28.9815984 35.9293957,23.5699025 C35.9293957,23.3923587 35.9253411,23.2157505 35.9175049,23.040078 C36.7177388,22.462729 37.4120468,21.7414815 37.9610526,20.9202729 Z" id="twitter" fill="#FFFFFF" fill-rule="nonzero"></path>
            </g>
        </g>
    </g>
</svg>