<?xml version="1.0" encoding="UTF-8"?>
<svg width="110px" height="55px" viewBox="0 0 110 55" version="1.1" xmlns="http://www.w3.org/2000/svg" xmlns:xlink="http://www.w3.org/1999/xlink">
    <!-- Generator: Sketch 46.1 (44463) - http://www.bohemiancoding.com/sketch -->
    <title>site/sprites/social/vk</title>
    <desc>Created with Sketch.</desc>
    <defs>
        <circle id="path-1" cx="27.5" cy="27.5" r="27.5"></circle>
    </defs>
    <g id="Site" stroke="none" stroke-width="1" fill="none" fill-rule="evenodd">
        <g id="site/sprites/social/vk">
            <g id="icon" stroke="#E1E1E1">
                <circle id="oval" cx="27.5" cy="27.5" r="27"></circle>
            </g>
            <path d="M36.5159987,29.9018912 C37.3452934,30.7031068 38.2205353,31.4568737 38.9643321,32.3388777 C39.2928957,32.7308365 39.6039301,33.1352615 39.8419177,33.5901309 C40.1791239,34.2367276 39.8737047,34.9482643 39.2878176,34.9868707 L35.6457373,34.9852279 C34.7063843,35.0623441 33.9570211,34.6881664 33.3269446,34.0525862 C32.8226979,33.544325 32.3557069,33.0034006 31.8708449,32.4779864 C31.6720661,32.2632594 31.4640101,32.0611919 31.2154756,31.9014513 C30.7183089,31.582115 30.2867182,31.6798631 30.0025881,32.1930045 C29.7132334,32.7149398 29.6475598,33.2928278 29.6191419,33.8744846 C29.5801283,34.7231489 29.3209005,34.9462833 28.4594281,34.9851313 C26.6183685,35.0710414 24.8711075,34.7954332 23.2479184,33.8763691 C21.8168674,33.0661662 20.7072024,31.9223248 19.741287,30.6274402 C17.8607743,28.1060414 16.4205926,25.335368 15.12626,22.4870952 C14.8349034,21.8453786 15.0479888,21.5009168 15.7635142,21.4886922 C16.9516459,21.4658376 18.139631,21.4674805 19.3291787,21.4870494 C19.8120876,21.4940556 20.1317645,21.7681175 20.3182386,22.2195563 C20.9610592,23.783671 21.7476293,25.271781 22.7349314,26.6511262 C22.9978702,27.018346 23.2659847,27.3856141 23.647722,27.6440692 C24.0700842,27.9302591 24.3916654,27.83541 24.5903465,27.369814 C24.7164204,27.0745886 24.7716448,26.7566052 24.8000627,26.440458 C24.8942031,25.352666 24.9066054,24.26671 24.741518,23.1827352 C24.640151,22.5062293 24.2550935,22.0682714 23.5729175,21.940276 C23.2248227,21.8749978 23.2766292,21.7468091 23.4451835,21.5502016 C23.7379073,21.2111031 24.0132484,21 24.5621239,21 L28.6782264,21 C29.3262227,21.1265459 29.4701188,21.4146201 29.5588393,22.0598157 L29.5623549,26.5842052 C29.5552748,26.833963 29.6884288,27.5752155 30.1430663,27.7405127 C30.5069325,27.8582163 30.7467756,27.5701421 30.9651344,27.3418376 C31.9506299,26.3068093 32.6539972,25.0835808 33.2823646,23.8169624 C33.5612213,23.2599963 33.8010156,22.6816251 34.0333881,22.1036888 C34.2055556,21.674863 34.4757209,21.4638566 34.9638544,21.473182 L38.9253674,21.476661 C39.0428476,21.476661 39.1616949,21.4783521 39.2754641,21.4976311 C39.9429917,21.610213 40.1259502,21.8943735 39.9197495,22.5394241 C39.5948969,23.5514528 38.9628185,24.3948504 38.3448025,25.2421135 C37.6841597,26.1466821 36.9775698,27.020327 36.3224445,27.9302591 C35.720493,28.7613355 35.7682956,29.1801593 36.5159987,29.9018912 L36.5159987,29.9018912 Z" id="vk" fill="#5075A5" fill-rule="nonzero"></path>
            <g id="icon" transform="translate(55.000000, 0.000000)">
                <g id="oval">
                    <use fill="#5075A5" fill-rule="evenodd" xlink:href="#path-1"></use>
                    <circle stroke="#5075A5" stroke-width="1" cx="27.5" cy="27.5" r="27"></circle>
                </g>
                <path d="M36.5159987,29.9018912 C37.3452934,30.7031068 38.2205353,31.4568737 38.9643321,32.3388777 C39.2928957,32.7308365 39.6039301,33.1352615 39.8419177,33.5901309 C40.1791239,34.2367276 39.8737047,34.9482643 39.2878176,34.9868707 L35.6457373,34.9852279 C34.7063843,35.0623441 33.9570211,34.6881664 33.3269446,34.0525862 C32.8226979,33.544325 32.3557069,33.0034006 31.8708449,32.4779864 C31.6720661,32.2632594 31.4640101,32.0611919 31.2154756,31.9014513 C30.7183089,31.582115 30.2867182,31.6798631 30.0025881,32.1930045 C29.7132334,32.7149398 29.6475598,33.2928278 29.6191419,33.8744846 C29.5801283,34.7231489 29.3209005,34.9462833 28.4594281,34.9851313 C26.6183685,35.0710414 24.8711075,34.7954332 23.2479184,33.8763691 C21.8168674,33.0661662 20.7072024,31.9223248 19.741287,30.6274402 C17.8607743,28.1060414 16.4205926,25.335368 15.12626,22.4870952 C14.8349034,21.8453786 15.0479888,21.5009168 15.7635142,21.4886922 C16.9516459,21.4658376 18.139631,21.4674805 19.3291787,21.4870494 C19.8120876,21.4940556 20.1317645,21.7681175 20.3182386,22.2195563 C20.9610592,23.783671 21.7476293,25.271781 22.7349314,26.6511262 C22.9978702,27.018346 23.2659847,27.3856141 23.647722,27.6440692 C24.0700842,27.9302591 24.3916654,27.83541 24.5903465,27.369814 C24.7164204,27.0745886 24.7716448,26.7566052 24.8000627,26.440458 C24.8942031,25.352666 24.9066054,24.26671 24.741518,23.1827352 C24.640151,22.5062293 24.2550935,22.0682714 23.5729175,21.940276 C23.2248227,21.8749978 23.2766292,21.7468091 23.4451835,21.5502016 C23.7379073,21.2111031 24.0132484,21 24.5621239,21 L28.6782264,21 C29.3262227,21.1265459 29.4701188,21.4146201 29.5588393,22.0598157 L29.5623549,26.5842052 C29.5552748,26.833963 29.6884288,27.5752155 30.1430663,27.7405127 C30.5069325,27.8582163 30.7467756,27.5701421 30.9651344,27.3418376 C31.9506299,26.3068093 32.6539972,25.0835808 33.2823646,23.8169624 C33.5612213,23.2599963 33.8010156,22.6816251 34.0333881,22.1036888 C34.2055556,21.674863 34.4757209,21.4638566 34.9638544,21.473182 L38.9253674,21.476661 C39.0428476,21.476661 39.1616949,21.4783521 39.2754641,21.4976311 C39.9429917,21.610213 40.1259502,21.8943735 39.9197495,22.5394241 C39.5948969,23.5514528 38.9628185,24.3948504 38.3448025,25.2421135 C37.6841597,26.1466821 36.9775698,27.020327 36.3224445,27.9302591 C35.720493,28.7613355 35.7682956,29.1801593 36.5159987,29.9018912 L36.5159987,29.9018912 Z" id="vk" fill="#FFFFFF" fill-rule="nonzero"></path>
            </g>
        </g>
    </g>
</svg>