<?xml version="1.0" encoding="UTF-8"?>
<svg width="72px" height="20px" viewBox="0 0 72 20" version="1.1" xmlns="http://www.w3.org/2000/svg" xmlns:xlink="http://www.w3.org/1999/xlink">
    <!-- Generator: Sketch 46.1 (44463) - http://www.bohemiancoding.com/sketch -->
    <title>site/logotype</title>
    <desc>Created with Sketch.</desc>
    <defs></defs>
    <g id="Site" stroke="none" stroke-width="1" fill="none" fill-rule="evenodd">
        <g id="site/logotype">
            <g id="logotype">
                <path d="M4.91358462,8.06406897 C5.45046923,7.2082069 6.50277692,6.58786207 7.79150769,6.58786207 C10.1540077,6.58786207 11.5067769,8.25648276 11.5067769,10.952 L11.5067769,16.3433793 C11.5067769,17.0706207 10.9269692,17.6485517 10.1969308,17.6485517 C9.46654615,17.6485517 8.88673846,17.0706207 8.88673846,16.3433793 L8.88673846,11.3371724 C8.88673846,9.71131034 8.32839231,8.85544828 6.93235385,8.85544828 C6.11646923,8.85544828 5.27877692,9.39062069 4.91358462,10.2247586 L4.91358462,16.3433793 C4.91358462,17.0706207 4.33377692,17.6485517 3.60339231,17.6485517 C2.87335385,17.6485517 2.29354615,17.0706207 2.29354615,16.3433793 L2.29354615,8.04268966 C2.29354615,7.31510345 2.87335385,6.73751724 3.60339231,6.73751724 C4.33377692,6.73751724 4.91358462,7.31510345 4.91358462,8.04268966 L4.91358462,8.06406897 Z" id="Fill-2" fill="#FFFFFF"></path>
                <path d="M16.2097269,13.1344483 C16.2097269,14.8672069 17.1547269,15.5303103 18.2714192,15.5303103 C19.3884577,15.5303103 20.3331115,14.8672069 20.3331115,13.1344483 L20.3331115,11.2516897 C20.3331115,9.51893103 19.3884577,8.85548276 18.2714192,8.85548276 C17.1547269,8.85548276 16.2097269,9.51893103 16.2097269,11.2516897 L16.2097269,13.1344483 Z M13.5896885,10.9734138 C13.5896885,8.53444828 15.4582269,6.58789655 18.2714192,6.58789655 C21.0846115,6.58789655 22.95315,8.53444828 22.95315,10.9734138 L22.95315,13.4123793 C22.95315,15.8513448 21.0846115,17.7978966 18.2714192,17.7978966 C15.4582269,17.7978966 13.5896885,15.8513448 13.5896885,13.4123793 L13.5896885,10.9734138 Z" id="Fill-4" fill="#FFFFFF"></path>
                <path d="M27.7423269,8.32068966 C28.3006731,7.2937931 29.4602885,6.58793103 30.7275577,6.58793103 C31.4361346,6.58793103 32.03775,7.18689655 32.03775,7.87137931 C32.03775,8.5562069 31.4361346,9.15517241 30.7275577,9.15517241 C29.3100577,9.15517241 28.3221346,9.64724138 27.7423269,10.5455172 L27.7423269,16.3434483 C27.7423269,17.0706897 27.1625192,17.6486207 26.4321346,17.6486207 C25.7020962,17.6486207 25.1222885,17.0706897 25.1222885,16.3434483 L25.1222885,8.04241379 C25.1222885,7.31517241 25.7020962,6.73758621 26.4321346,6.73758621 C27.1625192,6.73758621 27.7423269,7.31517241 27.7423269,8.04241379 L27.7423269,8.32068966 Z" id="Fill-6" fill="#FFFFFF"></path>
                <path d="M33.6266308,8.04251724 C33.6266308,7.31527586 34.2064385,6.73768966 34.9368231,6.73768966 C35.6668615,6.73768966 36.2466692,7.31527586 36.2466692,8.04251724 L36.2466692,16.3432069 C36.2466692,17.0707931 35.6668615,17.6483793 34.9368231,17.6483793 C34.2064385,17.6483793 33.6266308,17.0707931 33.6266308,16.3432069 L33.6266308,8.04251724 Z M33.6266308,3.50734483 C33.6266308,2.77941379 34.2064385,2.20182759 34.9368231,2.20182759 C35.6668615,2.20182759 36.2466692,2.77941379 36.2466692,3.50734483 L36.2466692,3.74217241 C36.2466692,4.46975862 35.6668615,5.04734483 34.9368231,5.04734483 C34.2064385,5.04734483 33.6266308,4.46975862 33.6266308,3.74217241 L33.6266308,3.50734483 Z" id="Fill-8" fill="#FFFFFF"></path>
                <path d="M39.2316577,16.4076207 C38.9311962,16.1079655 38.7806192,15.8300345 38.7806192,15.4448621 C38.7806192,14.7814138 39.31785,14.2465862 39.9620423,14.2465862 C40.2843115,14.2465862 40.6062346,14.3748621 40.82085,14.6103793 C41.4224654,15.2521034 42.2168885,15.6586552 43.2048115,15.6586552 C44.12835,15.6586552 44.7081577,15.1452069 44.7081577,14.4821034 C44.7081577,13.7976207 44.2571192,13.4017586 43.2477346,13.2200345 L42.2812731,13.0486552 C39.9187731,12.6317586 38.8020808,11.5617586 38.8020808,9.79693103 C38.8020808,7.97865517 40.3057731,6.58762069 42.7323115,6.58762069 C44.2785808,6.58762069 45.5243885,7.07968966 46.49085,8.02141379 C46.7054654,8.2352069 46.8556962,8.53451724 46.8556962,8.85555172 C46.8556962,9.47589655 46.3402731,9.98934483 45.7175423,9.98934483 C45.3738115,9.98934483 45.0948115,9.88244828 44.8154654,9.60451724 C44.2571192,9.06968966 43.5374654,8.72727586 42.7966962,8.72727586 C41.9375423,8.72727586 41.4224654,9.19796552 41.4224654,9.79693103 C41.4224654,10.4279655 41.9590038,10.8024483 42.9469269,10.9734828 L43.9133885,11.1445172 C46.3402731,11.5727931 47.3281962,12.5993448 47.3281962,14.4393448 C47.3281962,16.3862414 45.7819269,17.7979655 43.2048115,17.7979655 C41.5941577,17.7979655 40.0908115,17.2631379 39.2316577,16.4076207" id="Fill-10" fill="#FFFFFF"></path>
                <path d="M55.4677615,14.3965862 L55.4677615,13.1983103 L53.1699923,13.1983103 C52.2249923,13.1983103 51.5808,13.6265862 51.5808,14.3538276 L51.5808,14.4821034 C51.5808,15.1024483 52.0529538,15.5948621 53.1267231,15.5948621 C54.1146462,15.5948621 55.0811077,15.1238276 55.4677615,14.3965862 M51.3873,9.66831034 C51.1083,9.90382759 50.8289538,10.0107241 50.5496077,10.0107241 C49.9054154,10.0107241 49.3899923,9.51865517 49.3899923,8.87693103 C49.3899923,8.57727586 49.4758385,8.31003448 49.7122615,8.06417241 C50.6358,7.12244828 52.1606077,6.58762069 53.7712615,6.58762069 C56.5200692,6.58762069 58.0878,8.32072414 58.0878,10.716931 L58.0878,16.3434828 C58.0878,17.0707241 57.5079923,17.6486552 56.7779538,17.6486552 C56.0690308,17.6486552 55.5106846,17.1134828 55.4677615,16.4076207 C54.8664923,17.2848621 53.8571077,17.7979655 52.5469154,17.7979655 C50.3993769,17.7979655 48.9604154,16.4931379 48.9604154,14.7176207 L48.9604154,14.4393448 C48.9604154,12.7065862 50.2491462,11.1445172 53.6210308,11.1445172 L55.4677615,11.1445172 L55.4677615,10.8452069 C55.4677615,9.51865517 54.7591846,8.85555172 53.5566462,8.85555172 C52.6760308,8.85555172 51.9885692,9.1552069 51.3873,9.66831034" id="Fill-12" fill="#FFFFFF"></path>
                <path d="M63.1132269,8.06406897 C63.6501115,7.2082069 64.7024192,6.58786207 65.99115,6.58786207 C68.3533038,6.58786207 69.7064192,8.25648276 69.7064192,10.952 L69.7064192,16.3433793 C69.7064192,17.0706207 69.1266115,17.6485517 68.3965731,17.6485517 C67.6661885,17.6485517 67.0863808,17.0706207 67.0863808,16.3433793 L67.0863808,11.3371724 C67.0863808,9.71131034 66.5280346,8.85544828 65.1319962,8.85544828 C64.3161115,8.85544828 63.4784192,9.39062069 63.1132269,10.2247586 L63.1132269,16.3433793 C63.1132269,17.0706207 62.5334192,17.6485517 61.8030346,17.6485517 C61.0729962,17.6485517 60.4931885,17.0706207 60.4931885,16.3433793 L60.4931885,8.04268966 C60.4931885,7.31510345 61.0729962,6.73751724 61.8030346,6.73751724 C62.5334192,6.73751724 63.1132269,7.31510345 63.1132269,8.04268966 L63.1132269,8.06406897 Z" id="Fill-14" fill="#FFFFFF"></path>
                <path d="M65.99115,4.51882759 C65.0779962,4.51882759 64.2112269,4.72089655 63.4489962,5.09434483 C62.9612654,4.82331034 62.3998038,4.66882759 61.8030346,4.66882759 C60.4429962,4.66882759 59.2702269,5.47365517 58.7323038,6.62882759 C57.5976115,5.30606897 55.8606115,4.51882759 53.7712269,4.51882759 C51.5561885,4.51882759 49.5349962,5.284 48.21165,6.63365517 C48.1794577,6.66710345 48.1514192,6.70296552 48.1209577,6.73744828 C48.0634962,6.67089655 48.0056885,6.60468966 47.9430346,6.54227586 C46.56465,5.19951724 44.8117269,4.51882759 42.7323808,4.51882759 C40.71015,4.51882759 39.0143423,5.27158621 37.9447269,6.49951724 C37.8322269,6.28296552 37.6999962,6.07848276 37.5449192,5.89262069 C38.0312654,5.30848276 38.3237654,4.55882759 38.3237654,3.74227586 L38.3237654,3.50710345 C38.3237654,1.64675862 36.8044962,0.132965517 34.93665,0.132965517 C33.06915,0.132965517 31.5495346,1.64675862 31.5495346,3.50710345 L31.5495346,3.74227586 C31.5495346,4.06089655 31.5955731,4.36882759 31.67865,4.66124138 C31.3754192,4.56986207 31.0566115,4.51882759 30.7274192,4.51882759 C29.8284577,4.51882759 28.9502654,4.744 28.1717654,5.14848276 C27.6629192,4.844 27.0678808,4.66882759 26.4323423,4.66882759 C25.0671115,4.66882759 23.8912269,5.47882759 23.3557269,6.64055172 C22.1362269,5.32641379 20.3434962,4.51882759 18.2714192,4.51882759 C15.9019962,4.51882759 13.8943038,5.57089655 12.6969577,7.23468966 C11.7249577,5.51986207 10.0052654,4.51882759 7.79161154,4.51882759 C6.87845769,4.51882759 6.01168846,4.72089655 5.24911154,5.09434483 C4.76172692,4.82331034 4.20026538,4.66882759 3.60349615,4.66882759 C1.73599615,4.66882759 0.216726923,6.18227586 0.216726923,8.04262069 L0.216726923,16.3433103 C0.216726923,18.204 1.73599615,19.7174483 3.60349615,19.7174483 C5.20341923,19.7174483 6.54753462,18.6071034 6.90026538,17.1191724 C7.25299615,18.6071034 8.59711154,19.7174483 10.1966885,19.7174483 C11.5380346,19.7174483 12.6962654,18.9346897 13.2445731,17.8053793 C14.4626885,19.0836552 16.2315346,19.8671034 18.2714192,19.8671034 C20.3434962,19.8671034 22.1358808,19.0595172 23.3557269,17.7453793 C23.8912269,18.9071034 25.0671115,19.7174483 26.4323423,19.7174483 C28.2998423,19.7174483 29.8191115,18.204 29.8191115,16.3433103 L29.8191115,11.3795172 C30.0018808,11.2933103 30.2839962,11.224 30.7274192,11.224 C31.0102269,11.224 31.2850731,11.1836552 31.5495346,11.1153793 L31.5495346,16.3433103 C31.5495346,18.204 33.06915,19.7174483 34.93665,19.7174483 C36.2063423,19.7174483 37.3133423,19.0171034 37.89315,17.9850345 C39.1555731,19.1633103 41.1217269,19.8671034 43.2048808,19.8671034 C45.2593038,19.8671034 46.9648038,19.1602069 48.0634962,17.9726207 C49.0739192,19.1484828 50.6599962,19.8671034 52.5472269,19.8671034 C53.5029577,19.8671034 54.3814962,19.6767586 55.1489192,19.3126207 C55.6304192,19.571931 56.1846115,19.7174483 56.7779192,19.7174483 C57.7751885,19.7174483 58.6703423,19.2833103 59.29065,18.5977931 C59.9109577,19.2833103 60.8061115,19.7174483 61.8030346,19.7174483 C63.4029577,19.7174483 64.7470731,18.6071034 65.0998038,17.1191724 C65.4525346,18.6071034 66.79665,19.7174483 68.3965731,19.7174483 C70.2640731,19.7174483 71.7833423,18.204 71.7833423,16.3433103 L71.7833423,10.951931 C71.7833423,7.10434483 69.4554577,4.51882759 65.99115,4.51882759" id="Fill-16" fill="#FFFFFF"></path>
                <path d="M17.4287077,12.670931 C17.4287077,13.5519655 17.8150154,13.8892069 18.2715923,13.8892069 C18.7278231,13.8892069 19.1144769,13.5519655 19.1144769,12.670931 L19.1144769,11.7143793 C19.1144769,10.8333448 18.7278231,10.4967931 18.2715923,10.4967931 C17.8150154,10.4967931 17.4287077,10.8333448 17.4287077,11.7143793 L17.4287077,12.670931 Z" id="Fill-18" fill="#FFFFFF"></path>
                <path d="M4.91358462,8.06406897 C5.45046923,7.2082069 6.50277692,6.58786207 7.79150769,6.58786207 C10.1540077,6.58786207 11.5067769,8.25648276 11.5067769,10.952 L11.5067769,16.3433793 C11.5067769,17.0706207 10.9269692,17.6485517 10.1969308,17.6485517 C9.46654615,17.6485517 8.88673846,17.0706207 8.88673846,16.3433793 L8.88673846,11.3371724 C8.88673846,9.71131034 8.32839231,8.85544828 6.93235385,8.85544828 C6.11646923,8.85544828 5.27877692,9.39062069 4.91358462,10.2247586 L4.91358462,16.3433793 C4.91358462,17.0706207 4.33377692,17.6485517 3.60339231,17.6485517 C2.87335385,17.6485517 2.29354615,17.0706207 2.29354615,16.3433793 L2.29354615,8.04268966 C2.29354615,7.31510345 2.87335385,6.73751724 3.60339231,6.73751724 C4.33377692,6.73751724 4.91358462,7.31510345 4.91358462,8.04268966 L4.91358462,8.06406897 Z" id="Fill-20" fill="#000000"></path>
                <path d="M27.7423269,8.32068966 C28.3006731,7.2937931 29.4602885,6.58793103 30.7275577,6.58793103 C31.4361346,6.58793103 32.03775,7.18689655 32.03775,7.87137931 C32.03775,8.5562069 31.4361346,9.15517241 30.7275577,9.15517241 C29.3100577,9.15517241 28.3221346,9.64724138 27.7423269,10.5455172 L27.7423269,16.3434483 C27.7423269,17.0706897 27.1625192,17.6486207 26.4321346,17.6486207 C25.7020962,17.6486207 25.1222885,17.0706897 25.1222885,16.3434483 L25.1222885,8.04241379 C25.1222885,7.31517241 25.7020962,6.73758621 26.4321346,6.73758621 C27.1625192,6.73758621 27.7423269,7.31517241 27.7423269,8.04241379 L27.7423269,8.32068966 Z" id="Fill-22" fill="#000000"></path>
                <path d="M33.6266308,8.04251724 C33.6266308,7.31527586 34.2064385,6.73768966 34.9368231,6.73768966 C35.6668615,6.73768966 36.2466692,7.31527586 36.2466692,8.04251724 L36.2466692,16.3432069 C36.2466692,17.0707931 35.6668615,17.6483793 34.9368231,17.6483793 C34.2064385,17.6483793 33.6266308,17.0707931 33.6266308,16.3432069 L33.6266308,8.04251724 Z M33.6266308,3.50734483 C33.6266308,2.77941379 34.2064385,2.20182759 34.9368231,2.20182759 C35.6668615,2.20182759 36.2466692,2.77941379 36.2466692,3.50734483 L36.2466692,3.74217241 C36.2466692,4.46975862 35.6668615,5.04734483 34.9368231,5.04734483 C34.2064385,5.04734483 33.6266308,4.46975862 33.6266308,3.74217241 L33.6266308,3.50734483 Z" id="Fill-24" fill="#000000"></path>
                <path d="M39.2316577,16.4076207 C38.9311962,16.1079655 38.7806192,15.8300345 38.7806192,15.4448621 C38.7806192,14.7814138 39.31785,14.2465862 39.9620423,14.2465862 C40.2843115,14.2465862 40.6062346,14.3748621 40.82085,14.6103793 C41.4224654,15.2521034 42.2168885,15.6586552 43.2048115,15.6586552 C44.12835,15.6586552 44.7081577,15.1452069 44.7081577,14.4821034 C44.7081577,13.7976207 44.2571192,13.4017586 43.2477346,13.2200345 L42.2812731,13.0486552 C39.9187731,12.6317586 38.8020808,11.5617586 38.8020808,9.79693103 C38.8020808,7.97865517 40.3057731,6.58762069 42.7323115,6.58762069 C44.2785808,6.58762069 45.5243885,7.07968966 46.49085,8.02141379 C46.7054654,8.2352069 46.8556962,8.53451724 46.8556962,8.85555172 C46.8556962,9.47589655 46.3402731,9.98934483 45.7175423,9.98934483 C45.3738115,9.98934483 45.0948115,9.88244828 44.8154654,9.60451724 C44.2571192,9.06968966 43.5374654,8.72727586 42.7966962,8.72727586 C41.9375423,8.72727586 41.4224654,9.19796552 41.4224654,9.79693103 C41.4224654,10.4279655 41.9590038,10.8024483 42.9469269,10.9734828 L43.9133885,11.1445172 C46.3402731,11.5727931 47.3281962,12.5993448 47.3281962,14.4393448 C47.3281962,16.3862414 45.7819269,17.7979655 43.2048115,17.7979655 C41.5941577,17.7979655 40.0908115,17.2631379 39.2316577,16.4076207" id="Fill-26" fill="#000000"></path>
                <path d="M55.4677615,14.3965862 L55.4677615,13.1983103 L53.1699923,13.1983103 C52.2249923,13.1983103 51.5808,13.6265862 51.5808,14.3538276 L51.5808,14.4821034 C51.5808,15.1024483 52.0529538,15.5948621 53.1267231,15.5948621 C54.1146462,15.5948621 55.0811077,15.1238276 55.4677615,14.3965862 M51.3873,9.66831034 C51.1083,9.90382759 50.8289538,10.0107241 50.5496077,10.0107241 C49.9054154,10.0107241 49.3899923,9.51865517 49.3899923,8.87693103 C49.3899923,8.57727586 49.4758385,8.31003448 49.7122615,8.06417241 C50.6358,7.12244828 52.1606077,6.58762069 53.7712615,6.58762069 C56.5200692,6.58762069 58.0878,8.32072414 58.0878,10.716931 L58.0878,16.3434828 C58.0878,17.0707241 57.5079923,17.6486552 56.7779538,17.6486552 C56.0690308,17.6486552 55.5106846,17.1134828 55.4677615,16.4076207 C54.8664923,17.2848621 53.8571077,17.7979655 52.5469154,17.7979655 C50.3993769,17.7979655 48.9604154,16.4931379 48.9604154,14.7176207 L48.9604154,14.4393448 C48.9604154,12.7065862 50.2491462,11.1445172 53.6210308,11.1445172 L55.4677615,11.1445172 L55.4677615,10.8452069 C55.4677615,9.51865517 54.7591846,8.85555172 53.5566462,8.85555172 C52.6760308,8.85555172 51.9885692,9.1552069 51.3873,9.66831034" id="Fill-28" fill="#000000"></path>
                <path d="M63.1132269,8.06406897 C63.6501115,7.2082069 64.7024192,6.58786207 65.99115,6.58786207 C68.3533038,6.58786207 69.7064192,8.25648276 69.7064192,10.952 L69.7064192,16.3433793 C69.7064192,17.0706207 69.1266115,17.6485517 68.3965731,17.6485517 C67.6661885,17.6485517 67.0863808,17.0706207 67.0863808,16.3433793 L67.0863808,11.3371724 C67.0863808,9.71131034 66.5280346,8.85544828 65.1319962,8.85544828 C64.3161115,8.85544828 63.4784192,9.39062069 63.1132269,10.2247586 L63.1132269,16.3433793 C63.1132269,17.0706207 62.5334192,17.6485517 61.8030346,17.6485517 C61.0729962,17.6485517 60.4931885,17.0706207 60.4931885,16.3433793 L60.4931885,8.04268966 C60.4931885,7.31510345 61.0729962,6.73751724 61.8030346,6.73751724 C62.5334192,6.73751724 63.1132269,7.31510345 63.1132269,8.04268966 L63.1132269,8.06406897 Z" id="Fill-30" fill="#000000"></path>
                <path d="M16.2097269,13.1344483 C16.2097269,14.8672069 17.1547269,15.5303103 18.2714192,15.5303103 C19.3884577,15.5303103 20.3331115,14.8672069 20.3331115,13.1344483 L20.3331115,11.2516897 C20.3331115,9.51893103 19.3884577,8.85548276 18.2714192,8.85548276 C17.1547269,8.85548276 16.2097269,9.51893103 16.2097269,11.2516897 L16.2097269,13.1344483 Z M13.5896885,10.9734138 C13.5896885,8.53444828 15.4582269,6.58789655 18.2714192,6.58789655 C21.0846115,6.58789655 22.95315,8.53444828 22.95315,10.9734138 L22.95315,13.4123793 C22.95315,15.8513448 21.0846115,17.7978966 18.2714192,17.7978966 C15.4582269,17.7978966 13.5896885,15.8513448 13.5896885,13.4123793 L13.5896885,10.9734138 Z" id="Fill-32" fill="#000000"></path>
                <path d="M17.4287077,12.670931 C17.4287077,13.5519655 17.8150154,13.8892069 18.2715923,13.8892069 C18.7278231,13.8892069 19.1144769,13.5519655 19.1144769,12.670931 L19.1144769,11.7143793 C19.1144769,10.8333448 18.7278231,10.4967931 18.2715923,10.4967931 C17.8150154,10.4967931 17.4287077,10.8333448 17.4287077,11.7143793 L17.4287077,12.670931 Z" id="Fill-34" fill="#FF5C5C"></path>
            </g>
        </g>
    </g>
</svg>