<?xml version="1.0" encoding="UTF-8"?>
<svg width="24px" height="8px" viewBox="0 0 24 8" version="1.1" xmlns="http://www.w3.org/2000/svg" xmlns:xlink="http://www.w3.org/1999/xlink">
    <!-- Generator: Sketch 46.1 (44463) - http://www.bohemiancoding.com/sketch -->
    <title>site/elements/arrow-back</title>
    <desc>Created with Sketch.</desc>
    <defs></defs>
    <g id="Site" stroke="none" stroke-width="1" fill="none" fill-rule="evenodd">
        <g id="site/elements/arrow-back" fill-rule="nonzero">
            <path d="M8.08066053,0.120314335 C7.91718006,-0.0401047782 7.64509368,-0.0401047782 7.47589711,0.120314335 C7.31241664,0.275313883 7.31241664,0.533285159 7.47589711,0.687923403 L10.5423944,3.59533917 L0.423372499,3.59533917 C0.187488091,3.59570048 0,3.7734622 0,3.99710957 C0,4.22075693 0.187488091,4.40429952 0.423372499,4.40429952 L10.5423944,4.40429952 L7.47589711,7.30629573 C7.31241664,7.46671484 7.31241664,7.72504742 7.47589711,7.87968567 C7.64509368,8.04010478 7.91756113,8.04010478 8.08066053,7.87968567 L11.8731026,4.28398519 C12.0422991,4.12898564 12.0422991,3.87101436 11.8731026,3.71637612 L8.08066053,0.120314335 Z" id="icon" fill="#292F32" transform="translate(6.000000, 4.000000) rotate(-180.000000) translate(-6.000000, -4.000000) "></path>
            <path d="M20.0806605,0.120314335 C19.9171801,-0.0401047782 19.6450937,-0.0401047782 19.4758971,0.120314335 C19.3124166,0.275313883 19.3124166,0.533285159 19.4758971,0.687923403 L22.5423944,3.59533917 L12.4233725,3.59533917 C12.1874881,3.59570048 12,3.7734622 12,3.99710957 C12,4.22075693 12.1874881,4.40429952 12.4233725,4.40429952 L22.5423944,4.40429952 L19.4758971,7.30629573 C19.3124166,7.46671484 19.3124166,7.72504742 19.4758971,7.87968567 C19.6450937,8.04010478 19.9175611,8.04010478 20.0806605,7.87968567 L23.8731026,4.28398519 C24.0422991,4.12898564 24.0422991,3.87101436 23.8731026,3.71637612 L20.0806605,0.120314335 Z" id="icon-copy" fill="#F22B42" transform="translate(18.000000, 4.000000) rotate(-180.000000) translate(-18.000000, -4.000000) "></path>
        </g>
    </g>
</svg>