<?xml version="1.0" encoding="UTF-8"?>
<svg width="12px" height="12px" viewBox="0 0 12 12" version="1.1" xmlns="http://www.w3.org/2000/svg" xmlns:xlink="http://www.w3.org/1999/xlink">
    <!-- Generator: Sketch 46.1 (44463) - http://www.bohemiancoding.com/sketch -->
    <title>site/elements/link</title>
    <desc>Created with Sketch.</desc>
    <defs></defs>
    <g id="Site" stroke="none" stroke-width="1" fill="none" fill-rule="evenodd">
        <g id="site/elements/link" fill-rule="nonzero" fill="#B2BBBD">
            <g id="web-link" transform="translate(6.000000, 6.000000) scale(-1, 1) translate(-6.000000, -6.000000) ">
                <path d="M4.3947,9.52065 L3.7875,10.12365 C3.26115,10.64535 2.4051,10.6458 1.87905,10.12365 C1.62615,9.8727 1.48725,9.5394 1.48725,9.1851 C1.48725,8.8308 1.6263,8.49735 1.8789,8.2464 L4.1139,6.02895 C4.5771,5.56965 5.44845,4.8933 6.08355,5.52315 C6.375,5.81265 6.8457,5.8107 7.13505,5.5194 C7.42455,5.2281 7.42275,4.75725 7.1313,4.46805 C6.05175,3.39675 4.4562,3.59475 3.0666,4.97355 L0.83145,7.19115 C0.2952,7.7235 0,8.4315 0,9.1851 C0,9.9387 0.2952,10.64655 0.8316,11.1789 C1.38345,11.7264 2.1081,12 2.83305,12 C3.55815,12 4.2831,11.7264 4.83525,11.1786 L5.4429,10.57545 C5.7342,10.28625 5.73585,9.81555 5.44635,9.5241 C5.1573,9.23295 4.68615,9.2313 4.3947,9.52065 Z M11.1681,0.9066 C10.0086,-0.2439 8.3874,-0.3063 7.314,0.7587 L6.5571,1.51005 C6.26565,1.7994 6.26385,2.26995 6.55335,2.5614 C6.84285,2.85285 7.31355,2.8545 7.605,2.56515 L8.3616,1.81425 C8.91765,1.2621 9.64575,1.491 10.12065,1.96215 C10.37385,2.2131 10.5129,2.54655 10.5129,2.90085 C10.5129,3.2553 10.3737,3.58875 10.12095,3.8397 L7.7364,6.2052 C6.64605,7.287 6.13455,6.77925 5.9163,6.56265 C5.62485,6.2733 5.1543,6.2751 4.8648,6.5664 C4.5753,6.8577 4.5771,7.32855 4.86855,7.61775 C5.3691,8.11455 5.94045,8.36085 6.5394,8.36085 C7.27275,8.36085 8.04735,7.99155 8.78385,7.2603 L11.1684,4.8948 C11.7045,4.36245 12,3.6543 12,2.9007 C12,2.1474 11.7045,1.43925 11.1681,0.9066 Z" id="Shape"></path>
            </g>
        </g>
    </g>
</svg>