<?xml version="1.0" encoding="UTF-8"?>
<svg width="25px" height="25px" viewBox="0 0 25 25" version="1.1" xmlns="http://www.w3.org/2000/svg" xmlns:xlink="http://www.w3.org/1999/xlink">
    <!-- Generator: Sketch 46.1 (44463) - http://www.bohemiancoding.com/sketch -->
    <title>site/elements/zoom-in</title>
    <desc>Created with Sketch.</desc>
    <defs></defs>
    <g id="Site" stroke="none" stroke-width="1" fill="none" fill-rule="evenodd">
        <g id="site/elements/zoom-in" fill-rule="nonzero" fill="#FFFFFF">
            <g id="zoom-in-button">
                <path d="M24.9493313,21.8795782 C24.9146091,21.2582305 24.6271605,20.6786008 24.1540638,20.2744342 L17.7388889,14.7963477 C18.7002058,13.2995885 19.2579733,11.5208333 19.2579733,9.61409465 C19.2579733,4.31270576 14.945216,0 9.64393004,0 C4.34233539,0 0.0298868313,4.31270576 0.0298868313,9.61409465 C0.0298868313,14.9154321 4.34233539,19.2281379 9.64393004,19.2281379 C11.3241255,19.2281379 12.9049383,18.7942901 14.2803498,18.0337963 L20.391358,24.295679 C20.8259259,24.7409465 21.4234568,24.9891461 22.0459362,24.9826646 C22.6675412,24.9762346 23.2600309,24.7155864 23.6852366,24.2614198 L24.3380658,23.5631687 C24.7633745,23.1088477 24.9842593,22.5006687 24.9493313,21.8795782 Z M2.89156379,9.61409465 C2.89156379,5.89089506 5.92103909,2.8617284 9.64393004,2.8617284 C13.3670782,2.8617284 16.3959877,5.89089506 16.3959877,9.61409465 C16.3959877,13.3371914 13.3670782,16.3664095 9.64393004,16.3664095 C5.92098765,16.3664095 2.89156379,13.3371914 2.89156379,9.61409465 Z" id="Shape"></path>
                <path d="M13.2890947,8.36394033 L10.9109053,8.36394033 L10.9109053,5.96893004 C10.9109053,5.27515432 10.3475309,4.71075103 9.65411523,4.71075103 C8.9600823,4.71075103 8.39727366,5.27520576 8.39727366,5.96893004 L8.39727366,8.36394033 L5.99876543,8.36394033 C5.30509259,8.36394033 4.74063786,8.92757202 4.74063786,9.62078189 C4.74063786,10.3144547 5.30509259,10.877572 5.99876543,10.877572 L8.39727366,10.877572 L8.39727366,13.2592078 C8.39727366,13.9526749 8.9600823,14.5173354 9.65411523,14.5173354 C10.3474794,14.5173354 10.9109053,13.9526749 10.9109053,13.2592078 L10.9109053,10.877572 L13.2890947,10.877572 C13.9825617,10.877572 14.546965,10.3144547 14.546965,9.62078189 C14.546965,8.92757202 13.9825617,8.36394033 13.2890947,8.36394033 Z" id="Shape"></path>
            </g>
        </g>
    </g>
</svg>