<?xml version="1.0" encoding="UTF-8"?>
<svg width="120px" height="57px" viewBox="0 0 120 57" version="1.1" xmlns="http://www.w3.org/2000/svg" xmlns:xlink="http://www.w3.org/1999/xlink">
    <!-- Generator: Sketch 46.1 (44463) - http://www.bohemiancoding.com/sketch -->
    <title>404</title>
    <desc>Created with Sketch.</desc>
    <defs></defs>
    <g id="Site" stroke="none" stroke-width="1" fill="none" fill-rule="evenodd">
        <g id="404">
            <g id="Page-1">
                <path d="M114.350483,31.6552464 L114.350483,9.2930064 C114.350483,4.4347824 110.365195,0.4821744 105.466345,0.4821744 C99.7238161,0.4821744 96.9196782,4.1443104 95.3095632,6.8990064 L84.6189885,25.1344464 L84.6189885,23.2762464 C84.6189885,16.9018224 82.1656552,11.0299104 77.7109425,6.7421424 C73.1937011,2.3946384 66.887954,0.0001824 59.9546207,0.0001824 C53.0217471,0.0001824 46.716,2.3946384 42.1987586,6.7425984 C38.8451954,9.9701664 36.6272644,14.0965104 35.7353103,18.6583344 L35.7353103,9.2930064 C35.7353103,4.4347824 31.7495632,0.4821744 26.8511724,0.4821744 C21.1086437,0.4821744 18.304046,4.1443104 16.6943908,6.8990064 L2.66266667,30.8330784 C0.976689655,33.7049664 0.000137931034,35.8554624 0.000137931034,38.3429424 C0.000137931034,43.0976544 3.61531034,46.6836384 8.40933333,46.6836384 L19.1877241,46.6836384 L19.1877241,48.2951424 C19.1877241,52.8200304 22.8994483,56.5013184 27.4612874,56.5013184 C32.0235862,56.5013184 35.7353103,52.8200304 35.7353103,48.2951424 L35.7353103,46.3753824 C36.6571494,46.1077104 37.504046,45.6690384 38.2488736,45.1035984 C39.3035862,46.9690944 40.6231264,48.6868464 42.1987586,50.2030464 C46.716,54.5510064 53.0217471,56.9454624 59.9546207,56.9454624 C66.887954,56.9454624 73.1937011,54.5510064 77.7109425,50.2035024 C79.3348506,48.6407904 80.6893333,46.8651264 81.7592184,44.9335104 C83.1812874,46.0356624 84.9950805,46.6836384 87.0245057,46.6836384 L97.8028966,46.6836384 L97.8028966,48.2951424 C97.8028966,52.8200304 101.514621,56.5013184 106.07692,56.5013184 C110.638759,56.5013184 114.350483,52.8200304 114.350483,48.2951424 L114.350483,46.3753824 C117.559678,45.4424064 119.910023,42.4957344 119.910023,39.0155424 C119.910023,35.5348944 117.559678,32.5882224 114.350483,31.6552464" id="Fill-1" fill="#FFFFFF"></path>
                <path d="M51.1298851,32.4853032 C51.1298851,39.8702232 55.1749425,42.6960552 59.9547126,42.6960552 C64.7354023,42.6960552 68.7795402,39.8702232 68.7795402,32.4853032 L68.7795402,24.4619832 C68.7795402,17.0770632 64.7354023,14.2498632 59.9547126,14.2498632 C55.1749425,14.2498632 51.1298851,17.0770632 51.1298851,24.4619832 L51.1298851,32.4853032 Z M39.9151724,23.2763832 C39.9151724,12.8823192 47.9124138,4.5858552 59.9547126,4.5858552 C71.9970115,4.5858552 79.9947126,12.8823192 79.9947126,23.2763832 L79.9947126,33.6690792 C79.9947126,44.0635992 71.9970115,52.3596072 59.9547126,52.3596072 C47.9124138,52.3596072 39.9151724,44.0635992 39.9151724,33.6690792 L39.9151724,23.2763832 Z" id="Fill-3" fill="#FFFFFF"></path>
                <path d="M56.3474023,30.5103216 C56.3474023,34.2636576 58.0007356,35.7014256 59.9552184,35.7014256 C61.9087816,35.7014256 63.5625747,34.2636576 63.5625747,30.5103216 L63.5625747,26.4332256 C63.5625747,22.6794336 61.9087816,21.2444016 59.9552184,21.2444016 C58.0007356,21.2444016 56.3474023,22.6794336 56.3474023,26.4332256 L56.3474023,30.5103216 Z" id="Fill-5" fill="#FFFFFF"></path>
                <path d="M51.1298851,32.4853032 C51.1298851,39.8702232 55.1749425,42.6960552 59.9547126,42.6960552 C64.7354023,42.6960552 68.7795402,39.8702232 68.7795402,32.4853032 L68.7795402,24.4619832 C68.7795402,17.0770632 64.7354023,14.2498632 59.9547126,14.2498632 C55.1749425,14.2498632 51.1298851,17.0770632 51.1298851,24.4619832 L51.1298851,32.4853032 Z M39.9151724,23.2763832 C39.9151724,12.8823192 47.9124138,4.5858552 59.9547126,4.5858552 C71.9970115,4.5858552 79.9947126,12.8823192 79.9947126,23.2763832 L79.9947126,33.6690792 C79.9947126,44.0635992 71.9970115,52.3596072 59.9547126,52.3596072 C47.9124138,52.3596072 39.9151724,44.0635992 39.9151724,33.6690792 L39.9151724,23.2763832 Z" id="Fill-7" fill="#000000"></path>
                <path d="M56.3474023,30.5103216 C56.3474023,34.2636576 58.0007356,35.7014256 59.9552184,35.7014256 C61.9087816,35.7014256 63.5625747,34.2636576 63.5625747,30.5103216 L63.5625747,26.4332256 C63.5625747,22.6794336 61.9087816,21.2444016 59.9552184,21.2444016 C58.0007356,21.2444016 56.3474023,22.6794336 56.3474023,26.4332256 L56.3474023,30.5103216 Z" id="Fill-9" fill="#FF5C5C"></path>
                <path d="M23.3256552,35.4513096 L23.3256552,17.9003256 L13.019908,35.4513096 L23.3256552,35.4513096 Z M20.2746207,8.9567976 C22.0038161,5.9982696 23.8001379,4.5860376 26.8511724,4.5860376 C29.4953103,4.5860376 31.5973793,6.6704136 31.5973793,9.2933256 L31.5973793,35.4513096 L33.5633563,35.4513096 C35.5293333,35.4513096 37.1569195,37.0655496 37.1569195,39.0154056 C37.1569195,40.9657176 35.5293333,42.5795016 33.5633563,42.5795016 L31.5973793,42.5795016 L31.5973793,48.2954616 C31.5973793,50.5813896 29.7665747,52.3971816 27.4612874,52.3971816 C25.156,52.3971816 23.3256552,50.5813896 23.3256552,48.2954616 L23.3256552,42.5795016 L8.40933333,42.5795016 C5.90082759,42.5795016 4.13806897,40.8307416 4.13806897,38.3428056 C4.13806897,36.9310296 4.68013793,35.5525416 6.23967816,32.8958856 L20.2746207,8.9567976 Z" id="Fill-11" fill="#000000"></path>
                <path d="M101.940966,35.4513096 L101.940966,17.9003256 L91.6352184,35.4513096 L101.940966,35.4513096 Z M98.889931,8.9567976 C100.619126,5.9982696 102.415448,4.5860376 105.466483,4.5860376 C108.110621,4.5860376 110.21269,6.6704136 110.21269,9.2933256 L110.21269,35.4513096 L112.178667,35.4513096 C114.145103,35.4513096 115.77223,37.0655496 115.77223,39.0154056 C115.77223,40.9657176 114.145103,42.5795016 112.178667,42.5795016 L110.21269,42.5795016 L110.21269,48.2954616 C110.21269,50.5813896 108.381885,52.3971816 106.077057,52.3971816 C103.77131,52.3971816 101.940966,50.5813896 101.940966,48.2954616 L101.940966,42.5795016 L87.0246437,42.5795016 C84.5161379,42.5795016 82.7533793,40.8307416 82.7533793,38.3428056 C82.7533793,36.9310296 83.295908,35.5525416 84.8549885,32.8958856 L98.889931,8.9567976 Z" id="Fill-13" fill="#000000"></path>
            </g>
        </g>
    </g>
</svg>